<mxfile host="app.diagrams.net" agent="Mozilla/5.0 (X11; Ubuntu; Linux x86_64; rv:133.0) Gecko/20100101 Firefox/133.0" version="25.0.3">
  <diagram name="Page-1" id="Juiqj6YkxCS37qnOwY-p">
    <mxGraphModel dx="1434" dy="766" grid="1" gridSize="5" guides="1" tooltips="1" connect="1" arrows="1" fold="1" page="1" pageScale="1" pageWidth="850" pageHeight="1100" math="0" shadow="0">
      <root>
        <mxCell id="0" />
        <mxCell id="1" parent="0" />
        <mxCell id="RnNhrkKlVK8FuAkYZrih-7" value="x" style="endArrow=classic;html=1;rounded=0;strokeColor=default;align=center;verticalAlign=middle;fontFamily=NewsGotT;fontSize=18;fontColor=default;labelBackgroundColor=none;strokeWidth=2;" edge="1" parent="1">
          <mxGeometry x="1" y="-10" width="50" height="50" relative="1" as="geometry">
            <mxPoint x="100" y="370" as="sourcePoint" />
            <mxPoint x="760" y="370" as="targetPoint" />
            <mxPoint as="offset" />
          </mxGeometry>
        </mxCell>
        <mxCell id="RnNhrkKlVK8FuAkYZrih-8" value="y" style="endArrow=classic;html=1;rounded=0;strokeColor=default;align=center;verticalAlign=middle;fontFamily=NewsGotT;fontSize=18;fontColor=default;labelBackgroundColor=default;strokeWidth=2;" edge="1" parent="1">
          <mxGeometry x="1" y="15" width="50" height="50" relative="1" as="geometry">
            <mxPoint x="430" y="700" as="sourcePoint" />
            <mxPoint x="430" y="40" as="targetPoint" />
            <mxPoint as="offset" />
          </mxGeometry>
        </mxCell>
        <mxCell id="RnNhrkKlVK8FuAkYZrih-1" value="" style="ellipse;whiteSpace=wrap;html=1;aspect=fixed;" vertex="1" parent="1">
          <mxGeometry x="160" y="100" width="540" height="540" as="geometry" />
        </mxCell>
        <mxCell id="RnNhrkKlVK8FuAkYZrih-2" style="rounded=0;orthogonalLoop=1;jettySize=auto;html=1;exitX=0;exitY=1;exitDx=0;exitDy=0;entryX=1;entryY=0;entryDx=0;entryDy=0;endArrow=oval;endFill=1;startArrow=oval;startFill=1;strokeWidth=2;" edge="1" parent="1" source="RnNhrkKlVK8FuAkYZrih-1" target="RnNhrkKlVK8FuAkYZrih-1">
          <mxGeometry relative="1" as="geometry" />
        </mxCell>
        <mxCell id="RnNhrkKlVK8FuAkYZrih-3" style="rounded=0;orthogonalLoop=1;jettySize=auto;html=1;exitX=0;exitY=0;exitDx=0;exitDy=0;entryX=1;entryY=1;entryDx=0;entryDy=0;startArrow=oval;startFill=1;endArrow=oval;endFill=1;strokeWidth=2;" edge="1" parent="1" source="RnNhrkKlVK8FuAkYZrih-1" target="RnNhrkKlVK8FuAkYZrih-1">
          <mxGeometry relative="1" as="geometry" />
        </mxCell>
        <mxCell id="RnNhrkKlVK8FuAkYZrih-4" style="rounded=0;orthogonalLoop=1;jettySize=auto;html=1;exitX=0;exitY=0.5;exitDx=0;exitDy=0;entryX=1;entryY=0.5;entryDx=0;entryDy=0;startArrow=oval;startFill=1;endArrow=oval;endFill=1;strokeWidth=2;" edge="1" parent="1" source="RnNhrkKlVK8FuAkYZrih-1" target="RnNhrkKlVK8FuAkYZrih-1">
          <mxGeometry relative="1" as="geometry" />
        </mxCell>
        <mxCell id="RnNhrkKlVK8FuAkYZrih-5" style="rounded=0;orthogonalLoop=1;jettySize=auto;html=1;exitX=0.5;exitY=0;exitDx=0;exitDy=0;entryX=0.5;entryY=1;entryDx=0;entryDy=0;startArrow=oval;startFill=1;endArrow=oval;endFill=1;strokeWidth=2;" edge="1" parent="1" source="RnNhrkKlVK8FuAkYZrih-1" target="RnNhrkKlVK8FuAkYZrih-1">
          <mxGeometry relative="1" as="geometry" />
        </mxCell>
        <mxCell id="RnNhrkKlVK8FuAkYZrih-10" value="W&lt;font style=&quot;font-size: 15px;&quot;&gt;&lt;sup&gt;0&lt;/sup&gt;&lt;sub&gt;8&lt;/sub&gt;&lt;/font&gt; = 1" style="text;html=1;align=center;verticalAlign=middle;resizable=0;points=[];autosize=1;strokeColor=none;fillColor=none;fontFamily=Helvetica;fontSize=17;fontColor=default;labelBackgroundColor=default;" vertex="1" parent="1">
          <mxGeometry x="700" y="330" width="80" height="40" as="geometry" />
        </mxCell>
        <mxCell id="RnNhrkKlVK8FuAkYZrih-11" value="W&lt;font style=&quot;font-size: 15px;&quot;&gt;&lt;sup&gt;1&lt;/sup&gt;&lt;sub&gt;8&lt;/sub&gt;&lt;/font&gt; = - W&lt;font style=&quot;font-size: 15px;&quot;&gt;&lt;sup&gt;5&lt;/sup&gt;&lt;sub&gt;8&lt;/sub&gt;&lt;/font&gt;" style="text;html=1;align=center;verticalAlign=middle;resizable=0;points=[];autosize=1;strokeColor=none;fillColor=none;fontFamily=Helvetica;fontSize=17;fontColor=default;labelBackgroundColor=default;" vertex="1" parent="1">
          <mxGeometry x="618" y="560" width="110" height="40" as="geometry" />
        </mxCell>
        <mxCell id="RnNhrkKlVK8FuAkYZrih-12" value="W&lt;font style=&quot;font-size: 15px;&quot;&gt;&lt;sup&gt;2&lt;/sup&gt;&lt;sub&gt;8&lt;/sub&gt;&lt;/font&gt; = - W&lt;font style=&quot;font-size: 15px;&quot;&gt;&lt;sup&gt;6&lt;/sup&gt;&lt;sub&gt;8&lt;/sub&gt;&lt;/font&gt; = -j" style="text;html=1;align=center;verticalAlign=middle;resizable=0;points=[];autosize=1;strokeColor=none;fillColor=none;fontFamily=Helvetica;fontSize=17;fontColor=default;labelBackgroundColor=default;" vertex="1" parent="1">
          <mxGeometry x="433" y="640" width="140" height="40" as="geometry" />
        </mxCell>
        <mxCell id="RnNhrkKlVK8FuAkYZrih-13" value="W&lt;font style=&quot;font-size: 15px;&quot;&gt;&lt;sup&gt;3&lt;/sup&gt;&lt;sub&gt;8&lt;/sub&gt;&lt;/font&gt; = - W&lt;font style=&quot;font-size: 15px;&quot;&gt;&lt;sup&gt;7&lt;/sup&gt;&lt;sub&gt;8&lt;/sub&gt;&lt;/font&gt;" style="text;html=1;align=center;verticalAlign=middle;resizable=0;points=[];autosize=1;strokeColor=none;fillColor=none;fontFamily=Helvetica;fontSize=17;fontColor=default;labelBackgroundColor=default;" vertex="1" parent="1">
          <mxGeometry x="133" y="560" width="110" height="40" as="geometry" />
        </mxCell>
        <mxCell id="RnNhrkKlVK8FuAkYZrih-14" value="W&lt;font style=&quot;font-size: 15px;&quot;&gt;&lt;sup&gt;4&lt;/sup&gt;&lt;sub&gt;8&lt;/sub&gt;&lt;/font&gt; = - W&lt;font style=&quot;font-size: 15px;&quot;&gt;&lt;sup&gt;0&lt;/sup&gt;&lt;sub&gt;8&lt;/sub&gt;&lt;/font&gt; = - 1" style="text;html=1;align=center;verticalAlign=middle;resizable=0;points=[];autosize=1;strokeColor=none;fillColor=none;fontFamily=Helvetica;fontSize=17;fontColor=default;labelBackgroundColor=default;" vertex="1" parent="1">
          <mxGeometry x="8" y="370" width="150" height="40" as="geometry" />
        </mxCell>
        <mxCell id="RnNhrkKlVK8FuAkYZrih-15" value="W&lt;font style=&quot;font-size: 15px;&quot;&gt;&lt;sup&gt;5&lt;/sup&gt;&lt;sub&gt;8&lt;/sub&gt;&lt;/font&gt; = - W&lt;font style=&quot;font-size: 15px;&quot;&gt;&lt;sup&gt;1&lt;/sup&gt;&lt;sub&gt;8&lt;/sub&gt;&lt;/font&gt;" style="text;html=1;align=center;verticalAlign=middle;resizable=0;points=[];autosize=1;strokeColor=none;fillColor=none;fontFamily=Helvetica;fontSize=17;fontColor=default;labelBackgroundColor=default;" vertex="1" parent="1">
          <mxGeometry x="133" y="135" width="110" height="40" as="geometry" />
        </mxCell>
        <mxCell id="RnNhrkKlVK8FuAkYZrih-16" value="W&lt;font style=&quot;font-size: 15px;&quot;&gt;&lt;sup&gt;6&lt;/sup&gt;&lt;sub&gt;8&lt;/sub&gt;&lt;/font&gt; = - W&lt;font style=&quot;font-size: 15px;&quot;&gt;&lt;sup&gt;2&lt;/sup&gt;&lt;sub&gt;8&lt;/sub&gt;&lt;/font&gt; = j" style="text;html=1;align=center;verticalAlign=middle;resizable=0;points=[];autosize=1;strokeColor=none;fillColor=none;fontFamily=Helvetica;fontSize=17;fontColor=default;labelBackgroundColor=default;" vertex="1" parent="1">
          <mxGeometry x="433" y="60" width="135" height="40" as="geometry" />
        </mxCell>
        <mxCell id="RnNhrkKlVK8FuAkYZrih-17" value="W&lt;font style=&quot;font-size: 15px;&quot;&gt;&lt;sup&gt;7&lt;/sup&gt;&lt;sub&gt;8&lt;/sub&gt;&lt;/font&gt; = - W&lt;font style=&quot;font-size: 15px;&quot;&gt;&lt;sup&gt;3&lt;/sup&gt;&lt;sub&gt;8&lt;/sub&gt;&lt;/font&gt; " style="text;html=1;align=center;verticalAlign=middle;resizable=0;points=[];autosize=1;strokeColor=none;fillColor=none;fontFamily=Helvetica;fontSize=17;fontColor=default;labelBackgroundColor=default;" vertex="1" parent="1">
          <mxGeometry x="623" y="150" width="110" height="40" as="geometry" />
        </mxCell>
      </root>
    </mxGraphModel>
  </diagram>
</mxfile>
